<svg width="500" height="500" viewBox="0 0 500 500" fill="none" xmlns="http://www.w3.org/2000/svg">
<path fill-rule="evenodd" clip-rule="evenodd" d="M250 500C388.07 500 500 388.07 500 250C500 111.929 388.07 0 250 0C111.929 0 0 111.929 0 250C0 388.07 111.929 500 250 500ZM94.1786 382.275C63.8861 346.625 45.6098 300.448 45.6098 250V249.95C127.57 249.132 194.902 238.268 255.505 217.68C260.609 228.648 265.561 239.85 270.355 251.282C262.625 253.843 255.023 256.702 247.541 259.852C187.313 285.202 136.486 328.664 94.1786 382.275ZM127.412 413.561C161.565 439.2 204.008 454.391 250 454.391C277.7 454.391 304.111 448.88 328.202 438.895C317.427 387.2 303.455 338.795 286.966 293.675C279.552 296.055 272.289 298.752 265.175 301.745C212.636 323.861 166.782 362.839 127.412 413.561ZM331.645 283.557C346.543 325.043 359.384 369.089 369.705 415.686C410.182 386.393 439.5 342.63 450.073 291.984C407.143 280.884 367.775 278.645 331.645 283.557ZM314.943 240.141C358.045 232.755 404.536 234.243 454.357 246.209C453.586 203.958 439.998 164.839 417.316 132.577C378.086 160.298 339.264 183.22 297.98 201.227C303.834 213.911 309.493 226.884 314.943 240.141ZM235.13 176.556C181.758 193.961 122.511 203.287 50.7091 204.427C64.9375 141.947 107.794 90.3557 164.751 64.182C189.759 98.0141 213.484 135.469 235.13 176.556ZM277.959 160.369C315.627 144.125 351.059 123.429 387.005 98.3236C350.757 65.5611 302.709 45.6098 250 45.6098C236.395 45.6098 223.102 46.9389 210.241 49.4745C234.325 83.2584 257.111 120.225 277.959 160.369Z" fill="#7C849F"/>
</svg>
