<svg width="500" height="500" viewBox="0 0 500 500" fill="none" xmlns="http://www.w3.org/2000/svg">
<path d="M499.995 248.453C499.411 200.518 485.223 153.749 459.104 113.654C432.984 73.5595 396.024 41.809 352.572 22.1422C309.118 2.47529 260.985 -4.2888 213.84 2.64603C166.696 9.58117 122.502 29.9263 86.4647 61.2863C50.4268 92.646 24.0458 133.714 10.4282 179.654C-3.1891 225.594 -3.47599 274.492 9.60189 320.591C22.6798 366.69 48.5774 408.066 84.245 439.852C119.912 471.638 163.864 492.507 210.925 500V321.716H148.423V248.453H210.925V192.799C209.478 179.858 210.871 166.756 215.009 154.416C219.147 142.076 225.925 130.801 234.866 121.385C243.807 111.969 254.691 104.643 266.754 99.9226C278.817 95.2023 291.764 93.2034 304.677 94.0675C323.422 94.3257 342.122 96.0076 360.616 99.0985V161.985H329.366C323.978 161.301 318.503 161.845 313.353 163.575C308.199 165.305 303.499 168.178 299.599 171.982C295.699 175.785 292.699 180.422 290.821 185.548C288.939 190.676 288.23 196.163 288.739 201.603V249.082H358.116L346.866 322.345H289.052V498.428C348.113 489.029 401.871 458.643 440.572 412.779C479.273 366.916 500.355 308.617 499.995 248.453Z" fill="#7C849F"/>
</svg>
