<svg width="500" height="500" viewBox="0 0 500 500" fill="none" xmlns="http://www.w3.org/2000/svg">
<path fill-rule="evenodd" clip-rule="evenodd" d="M250 0C388.075 0 500 114.748 500 256.323C500 369.548 428.45 465.598 329.175 499.523C316.5 502.048 312 494.044 312 487.219C312 478.769 312.3 451.17 312.3 416.87C312.3 392.97 304.3 377.371 295.325 369.421C351 363.071 409.5 341.394 409.5 242.944C409.5 214.944 399.8 192.095 383.75 174.145C386.35 167.67 394.925 141.599 381.3 106.299C381.3 106.299 360.35 99.4305 312.625 132.58C292.65 126.905 271.25 124.05 250 123.95C228.75 124.05 207.375 126.905 187.425 132.58C139.65 99.4305 118.65 106.299 118.65 106.299C105.075 141.599 113.65 167.67 116.225 174.145C100.25 192.095 90.4751 214.944 90.4751 242.944C90.4751 341.144 148.85 363.153 204.375 369.628C197.225 376.028 190.75 387.319 188.5 403.894C174.25 410.444 138.05 421.779 115.75 382.605C115.75 382.605 102.525 357.976 77.425 356.176C77.425 356.176 53.05 355.853 75.725 371.753C75.725 371.753 92.1 379.627 103.475 409.252C103.475 409.252 118.15 455.001 187.7 439.501C187.825 460.926 188.05 481.119 188.05 487.219C188.05 493.994 183.45 501.923 170.975 499.548C71.6249 465.673 0 369.573 0 256.323C0 114.748 111.95 0 250 0Z" fill="#7C849F"/>
</svg>
