<svg width="500" height="500" viewBox="0 0 500 500" fill="none" xmlns="http://www.w3.org/2000/svg">
<path fill-rule="evenodd" clip-rule="evenodd" d="M250 386.364C325.311 386.364 386.364 325.311 386.364 250C386.364 174.688 325.311 113.636 250 113.636C174.688 113.636 113.636 174.688 113.636 250C113.636 325.311 174.688 386.364 250 386.364ZM250 340.909C300.207 340.909 340.909 300.207 340.909 250C340.909 199.792 300.207 159.091 250 159.091C199.792 159.091 159.091 199.792 159.091 250C159.091 300.207 199.792 340.909 250 340.909Z" fill="#7C849F"/>
<path d="M386.364 90.9087C373.811 90.9087 363.636 101.084 363.636 113.636C363.636 126.188 373.811 136.363 386.364 136.363C398.916 136.363 409.091 126.188 409.091 113.636C409.091 101.084 398.916 90.9087 386.364 90.9087Z" fill="#7C849F"/>
<path fill-rule="evenodd" clip-rule="evenodd" d="M14.8627 74.4559C0 103.626 0 141.811 0 218.182V281.818C0 358.189 0 396.375 14.8627 425.543C27.9364 451.202 48.7973 472.064 74.4559 485.136C103.626 500 141.811 500 218.182 500H281.818C358.189 500 396.375 500 425.543 485.136C451.202 472.064 472.064 451.202 485.136 425.543C500 396.375 500 358.189 500 281.818V218.182C500 141.811 500 103.626 485.136 74.4559C472.064 48.7973 451.202 27.9364 425.543 14.8627C396.375 0 358.189 0 281.818 0H218.182C141.811 0 103.626 0 74.4559 14.8627C48.7973 27.9364 27.9364 48.7973 14.8627 74.4559ZM281.818 45.4545H218.182C179.246 45.4545 152.778 45.49 132.32 47.1614C112.392 48.7895 102.201 51.7407 95.0918 55.363C77.9861 64.0789 64.0789 77.9861 55.363 95.0918C51.7407 102.201 48.7895 112.392 47.1614 132.32C45.49 152.778 45.4545 179.246 45.4545 218.182V281.818C45.4545 320.755 45.49 347.22 47.1614 367.68C48.7895 387.609 51.7407 397.8 55.363 404.909C64.0789 422.014 77.9861 435.92 95.0918 444.636C102.201 448.259 112.392 451.211 132.32 452.839C152.778 454.509 179.246 454.545 218.182 454.545H281.818C320.755 454.545 347.22 454.509 367.68 452.839C387.609 451.211 397.8 448.259 404.909 444.636C422.014 435.92 435.92 422.014 444.636 404.909C448.259 397.8 451.211 387.609 452.839 367.68C454.509 347.22 454.545 320.755 454.545 281.818V218.182C454.545 179.246 454.509 152.778 452.839 132.32C451.211 112.392 448.259 102.201 444.636 95.0918C435.92 77.9861 422.014 64.0789 404.909 55.363C397.8 51.7407 387.609 48.7895 367.68 47.1614C347.22 45.49 320.755 45.4545 281.818 45.4545Z" fill="#7C849F"/>
</svg>
